<!DOCTYPE svg PUBLIC "-//W3C//DTD SVG 20010904//EN" "http://www.w3.org/TR/2001/REC-SVG-20010904/DTD/svg10.dtd">
<svg version="1.0" xmlns="http://www.w3.org/2000/svg" width="1714px" height="1134px" viewBox="0 0 12000 7940" preserveAspectRatio="xMidYMid meet">
<g id="layer101" fill="#fcee50" stroke="none">
 <path d="M1216 7478 c-6 -19 -24 -158 -25 -190 -2 -50 -6 -78 -12 -78 -3 0 -4 -22 -1 -49 2 -27 -1 -58 -8 -70 -8 -16 -8 -26 -1 -35 6 -7 8 -15 6 -18 -3 -3 -8 -44 -10 -92 -2 -47 -7 -91 -11 -97 -4 -7 -6 -39 -6 -73 2 -81 -5 -90 -66 -87 -49 2 -219 -36 -261 -59 -21 -11 -29 -54 -12 -64 5 -3 72 1 149 11 159 18 177 16 167 -25 -4 -15 -9 -54 -11 -87 -5 -76 -22 -238 -34 -335 -5 -41 -17 -158 -26 -260 -9 -102 -22 -232 -30 -289 -8 -58 -14 -132 -14 -166 0 -57 -13 -119 -29 -138 -4 -4 -34 35 -68 85 -102 156 -177 318 -264 576 -50 148 -59 209 -37 258 11 24 10 29 -15 50 -36 30 -48 30 -86 -2 -30 -25 -31 -28 -31 -113 0 -48 7 -111 15 -141 9 -30 21 -78 29 -105 7 -28 24 -75 39 -105 14 -30 39 -92 56 -137 44 -123 167 -344 268 -483 59 -82 57 -70 37 -211 -5 -40 -3 -50 16 -69 36 -36 120 -14 120 31 0 11 4 19 9 19 5 0 46 -34 91 -75 46 -42 110 -97 144 -123 33 -25 69 -57 79 -69 10 -13 26 -23 36 -23 21 0 111 -56 111 -69 0 -5 15 -12 34 -15 19 -4 39 -13 46 -21 7 -8 19 -15 27 -15 11 0 13 -9 6 -47 -21 -127 3 -385 44 -463 7 -14 13 -36 13 -48 0 -13 16 -57 35 -98 19 -40 35 -78 35 -83 0 -5 10 -17 22 -25 12 -9 19 -16 14 -16 -5 0 -3 -7 4 -15 7 -8 10 -24 7 -34 -3 -12 1 -22 9 -25 8 -3 14 -14 14 -25 0 -11 4 -23 10 -26 5 -3 18 -26 29 -50 11 -25 42 -78 70 -119 27 -41 56 -87 65 -103 8 -16 28 -44 44 -61 16 -17 36 -42 46 -56 9 -14 23 -26 31 -26 8 0 15 -8 15 -18 0 -14 139 -162 152 -162 2 0 35 -29 73 -65 39 -36 74 -65 79 -65 16 0 106 -72 106 -85 0 -26 101 -164 161 -219 66 -61 91 -68 133 -35 37 29 34 57 -8 74 -31 13 -132 122 -123 132 2 2 35 -4 73 -13 150 -35 285 -2 327 79 17 34 19 45 9 87 -32 140 -230 364 -358 404 -77 24 -139 15 -199 -30 -58 -45 -73 -76 -87 -179 l-11 -84 -23 12 c-34 18 -164 147 -244 242 -111 132 -228 321 -318 516 -84 181 -137 411 -130 561 2 49 9 93 16 100 9 9 25 7 69 -7 127 -40 326 -25 454 36 l62 30 37 -26 c20 -14 38 -25 41 -25 7 0 300 -294 350 -352 60 -69 154 -207 265 -388 49 -80 94 -151 101 -158 7 -7 13 -20 13 -28 0 -11 6 -13 20 -9 21 7 29 -10 8 -18 -9 -3 -4 -14 15 -34 15 -16 27 -34 27 -41 0 -6 14 -18 30 -27 19 -10 30 -23 30 -38 1 -23 67 -103 78 -93 3 3 1 6 -3 6 -5 0 0 6 10 14 18 13 18 14 -3 41 -12 15 -22 38 -22 50 0 12 -7 28 -15 35 -8 7 -15 21 -15 31 0 10 -11 26 -25 35 -14 9 -28 28 -32 43 -3 14 -18 40 -32 57 -29 35 -56 80 -134 224 -58 107 -227 353 -309 450 -64 77 -216 228 -278 278 -25 20 -49 39 -54 43 -5 4 5 25 21 46 38 49 55 81 93 174 51 127 64 206 63 380 l-1 157 -47 143 c-64 194 -146 350 -244 469 -21 25 -48 65 -61 89 -12 25 -57 79 -100 121 -84 84 -398 340 -416 340 -6 0 -37 15 -67 34 -31 18 -71 39 -89 45 -18 7 -57 23 -86 37 -29 13 -61 24 -71 24 -10 0 -21 3 -25 8 -4 4 -17 8 -29 9 -49 3 -157 26 -157 33 0 4 6 23 14 41 7 19 17 88 20 154 16 305 23 524 17 561 -6 37 -9 39 -44 42 -24 2 -39 -1 -41 -10z m235 -953 c108 -42 224 -102 278 -144 21 -17 42 -31 45 -31 8 0 151 -116 185 -151 15 -14 50 -47 80 -74 30 -26 71 -73 91 -104 21 -31 65 -90 99 -131 81 -98 200 -336 238 -475 25 -88 28 -118 28 -250 0 -136 -3 -160 -29 -250 -31 -107 -49 -145 -103 -212 -30 -38 -37 -42 -56 -32 -11 7 -54 22 -95 35 -146 46 -333 22 -442 -57 l-41 -30 -56 25 c-128 59 -320 201 -466 343 -115 112 -123 128 -107 213 6 36 20 93 31 128 10 35 23 107 29 160 5 53 14 140 20 192 26 230 70 738 70 800 0 97 1 99 61 88 28 -5 91 -25 140 -43z m723 -1925 c51 -15 37 -27 -54 -46 -63 -13 -88 -13 -163 -3 -53 7 -86 16 -84 23 2 5 26 18 53 28 54 20 175 19 248 -2z m561 -1387 c75 -25 225 -174 270 -267 38 -78 36 -95 -16 -116 -25 -11 -48 -11 -103 -3 -87 12 -241 77 -263 110 -10 14 -17 56 -20 111 -6 99 10 156 49 172 31 12 28 12 83 -7z"/>
 <path d="M1520 7030 c0 -5 7 -10 16 -10 9 0 41 -22 72 -50 31 -27 62 -50 69 -50 8 0 31 -16 51 -36 20 -20 73 -60 117 -89 44 -29 91 -67 103 -85 17 -23 30 -30 44 -27 14 4 22 -1 28 -19 6 -15 17 -24 31 -24 12 0 37 -17 58 -39 20 -23 75 -60 126 -87 50 -25 106 -61 125 -79 19 -18 51 -40 70 -48 19 -8 72 -44 117 -81 45 -36 92 -66 103 -66 14 0 24 -8 27 -20 6 -23 75 -63 95 -55 8 3 39 -19 71 -50 37 -36 65 -55 81 -55 13 0 26 -7 29 -15 4 -8 38 -30 76 -50 39 -19 85 -48 104 -65 19 -16 41 -30 49 -30 8 0 35 -15 59 -33 42 -31 98 -60 249 -130 l65 -30 -55 -11 c-45 -9 -58 -17 -78 -46 -19 -28 -23 -45 -20 -85 3 -27 11 -66 20 -85 9 -19 23 -57 33 -85 10 -27 44 -101 76 -164 33 -63 59 -120 59 -127 0 -6 -38 -39 -85 -72 -79 -57 -85 -59 -89 -39 -3 12 -10 46 -15 74 -32 161 -134 313 -266 397 -117 75 -210 76 -313 2 -46 -33 -114 -137 -94 -144 7 -2 12 -25 12 -56 0 -146 129 -384 231 -426 26 -11 38 -11 73 1 36 13 42 19 55 64 11 39 12 61 3 102 -19 90 -85 217 -147 282 -59 62 -62 80 -20 99 53 24 204 -55 269 -141 36 -47 94 -190 112 -279 8 -39 17 -75 19 -79 3 -4 -4 -27 -15 -50 -11 -24 -20 -66 -20 -93 0 -43 4 -52 38 -83 20 -20 64 -53 96 -74 122 -80 216 -31 216 113 0 31 -3 64 -6 73 -10 24 -55 44 -81 34 -23 -8 -28 -20 -38 -86 -4 -24 -11 -45 -16 -48 -4 -3 -25 9 -45 28 -43 40 -42 56 8 131 29 45 150 146 173 145 6 0 39 -43 75 -96 72 -107 195 -237 252 -268 31 -16 46 -37 97 -137 86 -170 127 -227 175 -249 59 -27 92 -24 127 10 27 28 29 34 29 111 0 73 -3 83 -25 105 -28 29 -45 31 -85 10 -23 -12 -30 -22 -30 -45 0 -74 -32 -31 -106 143 -30 70 -34 89 -34 168 0 144 30 178 127 141 140 -53 312 -242 354 -389 27 -95 66 -173 153 -306 99 -150 133 -173 234 -163 37 4 88 7 113 6 69 -1 76 13 81 150 7 175 43 242 109 203 49 -29 99 -122 162 -303 79 -230 70 -213 173 -317 59 -59 80 -70 164 -87 l25 -5 0 -128 c0 -214 13 -306 64 -447 11 -33 20 -60 18 -62 -1 -1 -45 -18 -97 -39 -111 -44 -236 -108 -338 -172 -60 -38 -75 -44 -83 -32 -5 8 -9 59 -9 115 0 131 -26 401 -51 539 -12 61 -27 143 -34 183 -8 40 -18 79 -23 85 -5 7 -12 29 -15 50 -12 78 -81 197 -114 197 -17 0 -16 -14 4 -53 20 -38 23 -49 29 -102 7 -73 10 -91 17 -102 4 -6 7 -22 7 -34 -1 -32 8 -129 14 -155 3 -11 8 -58 11 -104 3 -46 9 -88 12 -92 2 -5 7 -62 9 -126 3 -64 9 -150 15 -190 8 -58 8 -78 -4 -101 -11 -21 -12 -40 -5 -77 22 -120 19 -130 -49 -162 -47 -21 -73 -26 -140 -27 -88 0 -109 -10 -118 -54 -6 -32 28 -57 86 -64 26 -3 69 -17 95 -31 27 -15 65 -32 85 -40 50 -19 67 -78 51 -174 -11 -66 -13 -362 -2 -362 4 0 3 -59 -2 -115 0 -5 3 -22 7 -37 9 -35 1 -35 -44 -1 -106 81 -307 284 -440 444 -133 162 -251 318 -251 334 0 3 -9 18 -20 33 -27 37 -50 125 -43 168 7 41 -10 64 -46 64 -34 0 -44 -8 -60 -46 -21 -54 7 -133 117 -328 24 -42 47 -76 52 -76 4 0 29 -34 55 -76 48 -76 97 -133 298 -348 98 -105 281 -265 304 -267 4 0 23 -18 41 -41 38 -48 40 -80 15 -203 -16 -78 -16 -84 0 -109 23 -35 78 -36 111 -2 20 19 25 38 31 110 4 47 9 86 12 86 3 0 16 -9 30 -20 14 -11 31 -20 38 -20 6 0 19 -8 28 -18 10 -10 41 -29 70 -42 28 -12 67 -30 86 -39 26 -12 35 -13 38 -4 3 9 15 2 35 -18 21 -20 39 -30 57 -28 14 1 33 -1 41 -3 102 -36 232 -39 349 -9 163 43 202 154 118 335 -113 242 -343 480 -665 689 -55 36 -120 74 -144 85 -69 31 -78 47 -81 142 l-2 83 100 56 c55 31 118 68 140 82 122 79 303 150 392 154 37 1 73 9 87 19 19 12 49 16 118 16 105 0 193 -15 323 -55 119 -37 160 -59 269 -149 33 -27 57 -40 73 -38 16 2 23 -2 23 -13 0 -9 18 -24 43 -35 46 -21 59 -13 30 18 -10 11 -31 38 -46 61 -15 22 -63 66 -105 98 -42 32 -81 63 -85 70 -4 7 -13 13 -20 13 -7 0 -28 10 -47 23 -104 68 -314 127 -452 127 l-85 0 -9 69 c-6 38 -6 81 -1 97 20 69 -15 301 -72 485 -51 167 -50 210 10 270 53 53 170 -15 281 -164 60 -82 148 -248 148 -281 0 -41 61 -144 115 -195 89 -84 218 -131 276 -101 52 28 99 74 110 109 6 20 15 40 20 45 8 10 49 -51 129 -192 67 -120 96 -135 94 -49 -3 89 -105 316 -178 396 -23 25 -49 62 -56 81 -28 72 -83 174 -103 192 -43 36 -96 58 -143 58 -79 0 -124 -20 -186 -82 l-58 -58 -21 43 c-40 80 -125 202 -175 251 -97 97 -198 119 -320 70 -36 -14 -66 -24 -68 -22 -48 77 -90 134 -130 177 -87 93 -196 124 -281 81 -21 -11 -39 -19 -39 -17 -7 23 -49 89 -78 122 -75 85 -171 96 -273 31 l-54 -35 -36 67 c-56 101 -129 193 -186 232 -45 31 -59 35 -113 35 -51 0 -67 -4 -96 -27 l-35 -27 -24 35 c-76 111 -273 241 -380 252 -124 12 -231 -82 -231 -203 0 -25 -3 -45 -7 -45 -10 1 -196 247 -205 272 -6 14 -1 26 21 44 16 13 43 47 61 74 30 47 32 55 28 124 -3 64 -9 86 -48 162 -25 50 -67 112 -98 146 l-54 58 34 -11 c18 -6 40 -20 50 -30 10 -12 29 -19 51 -19 21 0 41 -7 52 -20 9 -10 47 -35 84 -53 36 -19 80 -42 96 -50 17 -9 47 -19 68 -22 29 -5 40 -12 48 -32 7 -20 14 -24 34 -19 19 5 26 1 37 -21 10 -22 29 -34 86 -54 40 -14 76 -30 80 -36 4 -6 18 -14 32 -18 14 -4 35 -16 46 -27 12 -11 28 -18 35 -17 8 2 26 -5 41 -15 16 -10 35 -16 43 -12 23 8 46 -4 41 -23 -3 -9 -2 -20 2 -26 13 -19 141 -75 157 -69 9 4 30 -8 54 -29 58 -52 85 -68 126 -72 20 -2 42 -11 49 -20 7 -9 19 -16 27 -15 28 4 38 0 44 -20 4 -12 21 -23 48 -30 23 -6 60 -24 82 -38 48 -33 68 -43 165 -77 42 -15 87 -40 102 -55 15 -15 60 -41 100 -58 92 -39 170 -74 648 -297 162 -75 322 -151 355 -168 33 -16 74 -29 91 -29 24 1 31 -3 30 -15 -2 -24 49 -46 114 -51 56 -4 135 -45 135 -69 0 -6 3 -15 8 -19 4 -4 7 -2 7 4 0 17 30 15 36 -3 4 -8 14 -15 23 -15 9 0 27 -9 41 -20 14 -11 30 -20 36 -20 6 0 17 -6 23 -14 12 -15 149 -61 169 -57 7 1 32 -8 57 -20 45 -22 81 -20 72 5 -3 8 1 20 8 26 21 17 9 30 -27 30 -16 0 -42 6 -56 14 -15 7 -40 20 -55 27 -16 7 -39 22 -51 34 -23 21 -76 46 -136 64 -19 6 -67 35 -105 64 -64 48 -135 84 -525 270 -215 103 -572 273 -735 352 -82 39 -206 98 -275 131 -69 32 -147 71 -173 86 -26 16 -54 28 -60 28 -7 0 -31 13 -53 29 -21 16 -50 32 -64 36 -14 4 -32 13 -40 19 -8 7 -36 20 -61 29 -25 10 -61 29 -79 42 -19 14 -38 25 -44 25 -5 0 -17 6 -25 13 -9 8 -37 21 -63 31 -26 9 -74 35 -107 56 -70 45 -515 270 -535 270 -7 0 -25 9 -40 21 -15 11 -33 19 -40 16 -8 -3 -24 5 -37 19 -12 13 -32 24 -44 24 -12 0 -38 16 -58 35 -19 19 -48 37 -64 41 -87 19 -100 25 -111 48 -7 15 -29 31 -59 42 -26 10 -86 43 -132 72 -47 30 -96 58 -110 62 -14 4 -86 44 -159 89 -74 44 -139 81 -144 81 -6 0 -32 13 -57 28 -25 16 -53 31 -62 34 -9 4 -55 36 -103 72 -47 36 -91 66 -97 66 -7 0 -51 29 -99 65 -48 36 -93 65 -99 65 -21 0 -471 307 -683 466 -191 144 -192 144 -338 144 -73 0 -120 -4 -120 -10z m560 -350 c0 -5 -7 -10 -15 -10 -8 0 -15 5 -15 10 0 6 7 10 15 10 8 0 15 -4 15 -10z m1527 -1121 c32 -20 91 -98 127 -166 23 -46 21 -139 -4 -180 -11 -18 -25 -33 -30 -33 -12 0 -103 186 -139 283 -26 71 -28 117 -5 117 9 0 32 -9 51 -21z m-622 -537 c10 -29 14 -56 10 -60 -19 -19 -87 111 -102 193 -5 27 -1 25 35 -25 22 -30 48 -79 57 -108z m1854 -417 c26 -30 69 -93 93 -142 81 -158 101 -281 53 -328 -13 -14 -29 -25 -34 -25 -18 0 -81 74 -121 141 -67 113 -101 212 -101 294 0 85 14 125 42 118 11 -3 41 -29 68 -58z m864 -402 c35 -33 91 -119 123 -188 31 -65 31 -112 1 -135 -13 -10 -32 -34 -42 -54 -11 -20 -25 -36 -32 -36 -24 0 -86 74 -114 136 -29 63 -69 195 -69 225 0 9 7 33 16 54 14 35 17 37 51 32 20 -4 49 -19 66 -34z m1095 -437 c15 -8 38 -32 50 -55 l23 -40 -23 -5 c-13 -3 -41 -8 -63 -11 -51 -9 -105 -37 -144 -75 l-31 -32 0 42 c0 56 23 101 76 150 47 43 69 48 112 26z m-813 -278 c17 -73 34 -230 35 -323 0 -44 -2 -48 -15 -34 -23 23 -43 136 -51 290 -8 158 4 184 31 67z m915 42 c56 -56 -9 -180 -93 -180 -40 0 -87 45 -87 84 0 84 125 151 180 96z m-1640 -990 c0 -5 -7 -10 -15 -10 -8 0 -15 5 -15 10 0 6 7 10 15 10 8 0 15 -4 15 -10z m220 -264 c20 -12 45 -27 55 -34 11 -6 27 -15 35 -19 8 -4 28 -20 45 -36 54 -51 62 -57 72 -57 5 0 18 -10 29 -21 10 -12 31 -29 46 -39 34 -21 258 -237 258 -249 0 -5 14 -22 30 -38 17 -15 30 -33 30 -38 0 -6 13 -26 29 -46 32 -38 70 -132 78 -191 8 -56 -12 -104 -50 -119 -50 -22 -207 -16 -302 11 -139 39 -383 158 -430 210 -17 19 -19 47 -23 365 l-3 344 33 -11 c18 -6 49 -21 68 -32z"/>
 <path d="M3258 3995 c-54 -30 -50 -137 9 -253 53 -104 66 -114 144 -110 l64 3 7 57 c21 171 76 114 132 -135 5 -20 11 -27 21 -23 8 3 15 1 15 -3 0 -5 -7 -11 -15 -15 -24 -9 -17 -41 15 -64 16 -12 32 -22 36 -22 4 0 29 -21 56 -46 46 -43 50 -45 71 -31 20 13 22 25 27 128 3 63 10 122 16 133 10 17 12 16 32 -9 12 -15 37 -75 57 -135 29 -92 35 -123 35 -198 0 -154 46 -326 94 -352 39 -20 59 -9 79 45 35 94 8 227 -70 336 -30 42 -32 48 -22 85 18 63 48 114 67 114 20 0 60 -26 84 -55 33 -40 108 -235 108 -282 0 -7 6 -13 13 -13 6 -1 24 -18 38 -39 27 -38 81 -71 118 -71 11 0 35 13 54 29 l33 30 32 -65 c18 -35 32 -80 32 -98 0 -60 93 -126 138 -98 16 11 34 71 27 93 -13 40 -65 25 -65 -19 0 -21 -25 -8 -28 15 -2 14 11 32 39 57 24 20 47 36 53 36 6 0 24 -24 39 -53 38 -71 154 -196 162 -175 7 19 -18 71 -87 181 l-50 79 31 30 c17 17 34 41 37 55 13 51 -38 166 -93 207 -33 25 -91 26 -109 1 -21 -28 -17 -60 19 -165 l32 -95 -58 -37 c-32 -21 -60 -38 -62 -38 -3 0 -5 9 -5 20 0 27 -37 124 -59 152 -10 13 -26 47 -35 75 -31 95 -112 122 -181 62 -25 -22 -36 -27 -40 -17 -2 7 -12 35 -20 62 -39 115 -116 196 -188 196 -53 0 -85 -18 -104 -61 -19 -40 -33 -50 -33 -24 0 31 -42 141 -67 173 -31 42 -63 54 -102 41 -42 -15 -54 -52 -50 -159 2 -49 2 -90 -1 -90 -17 0 -80 75 -80 94 0 27 -24 51 -40 41 -6 -4 -10 14 -10 51 0 79 -27 168 -61 206 -25 26 -34 29 -71 26 -24 -3 -50 -7 -58 -11 -11 -4 -23 10 -44 54 -44 88 -103 124 -158 94z m104 -133 c40 -81 47 -167 13 -167 -40 0 -97 154 -81 219 10 39 32 22 68 -52z m1460 -579 c44 -50 62 -129 34 -152 -11 -9 -17 0 -35 47 -39 108 -38 150 1 105z m-324 -20 c14 -22 13 -23 -14 -23 -16 0 -42 -7 -58 -15 -34 -18 -36 -18 -36 -4 0 18 59 71 76 67 9 -2 23 -13 32 -25z m-398 -158 c9 -57 3 -132 -10 -118 -17 18 -40 125 -40 185 l1 63 20 -38 c11 -21 24 -63 29 -92z m418 44 c4 -31 -18 -52 -50 -47 -30 4 -37 46 -12 65 29 21 59 12 62 -18z"/>
 <path d="M7490 3870 c-12 -12 -20 -26 -18 -32 3 -7 35 -18 73 -25 55 -12 70 -12 76 -2 11 18 3 26 -31 34 -16 3 -40 15 -54 26 -25 20 -25 20 -46 -1z"/>
 <path d="M7492 3465 c-20 -16 -34 -43 -46 -83 -35 -126 -13 -291 75 -552 34 -102 69 -205 77 -230 8 -25 21 -52 29 -61 7 -8 13 -22 13 -29 0 -7 26 -61 59 -119 32 -58 75 -140 96 -181 l37 -74 -16 -51 c-15 -49 -69 -145 -82 -145 -8 0 -36 34 -75 88 -25 34 -36 42 -62 42 -82 0 -101 -68 -46 -156 34 -52 92 -184 85 -191 -6 -7 -152 63 -160 76 -4 6 -20 11 -36 11 -31 0 -28 -10 -46 138 -10 86 -35 166 -79 257 -56 115 -107 181 -169 220 -62 38 -150 42 -205 10 -53 -31 -100 -105 -115 -183 -8 -37 -14 -59 -15 -50 -3 45 -57 189 -89 237 -77 116 -197 145 -281 68 -13 -12 -25 -17 -28 -12 -2 6 -27 55 -56 110 -44 83 -59 104 -97 127 -66 40 -98 44 -140 16 -81 -55 -112 -163 -91 -315 7 -49 18 -99 24 -113 15 -31 60 -54 88 -45 20 7 20 11 12 88 -11 112 -9 195 6 240 18 54 42 49 89 -20 60 -88 90 -155 137 -297 38 -115 47 -133 76 -153 39 -27 52 -28 69 -8 10 13 10 29 -5 90 -25 107 -8 215 34 215 23 0 52 -32 89 -100 35 -63 98 -213 118 -281 15 -49 46 -85 63 -74 6 3 15 -5 20 -18 12 -31 38 -41 64 -24 18 12 20 26 22 127 2 117 21 197 60 256 57 87 184 -66 289 -348 20 -51 39 -113 45 -137 17 -78 92 -143 264 -230 147 -74 171 -80 202 -57 25 18 16 64 -34 172 -23 48 -40 88 -39 89 2 2 21 12 44 23 50 25 100 81 126 139 21 47 32 49 43 6 3 -16 31 -82 62 -148 30 -66 75 -168 99 -227 51 -128 60 -146 87 -175 23 -26 67 -31 67 -9 0 37 -167 488 -248 673 l-41 92 14 118 c25 196 17 419 -20 586 -19 83 -72 251 -92 292 -74 149 -167 270 -227 299 -51 24 -109 21 -144 -9z m124 -106 c64 -39 176 -240 212 -380 11 -41 25 -96 32 -124 15 -60 25 -420 13 -485 l-9 -45 -33 70 c-157 328 -209 458 -253 628 -35 136 -45 292 -20 335 16 27 17 27 58 1z"/>
 <path d="M9193 3473 c-34 -6 -85 -70 -77 -96 14 -47 76 -173 95 -193 11 -12 22 -39 26 -60 3 -21 16 -50 29 -64 13 -14 30 -43 37 -65 8 -22 38 -88 66 -146 28 -58 51 -116 51 -129 0 -12 14 -45 30 -72 17 -26 30 -52 30 -57 0 -4 13 -28 30 -52 16 -24 30 -54 30 -65 0 -12 7 -24 15 -28 8 -3 12 -12 9 -20 -3 -8 4 -24 15 -35 12 -12 21 -27 21 -33 0 -22 40 -120 61 -149 10 -15 19 -38 19 -51 0 -13 4 -28 9 -33 17 -18 56 -137 80 -245 5 -25 17 -65 26 -90 9 -25 19 -83 22 -129 l6 -84 -33 19 c-91 52 -214 195 -317 367 -85 143 -183 345 -183 377 0 41 -26 63 -64 56 -39 -8 -66 -39 -66 -77 0 -40 51 -176 105 -276 25 -47 45 -90 45 -95 0 -5 26 -46 58 -91 32 -45 68 -99 81 -120 25 -41 154 -172 186 -189 11 -6 24 -17 28 -25 14 -23 128 -73 165 -73 70 0 132 74 132 156 0 53 -41 234 -85 374 -34 107 -199 498 -275 651 -32 63 -69 149 -83 190 -14 40 -50 131 -80 201 -30 70 -49 125 -43 121 6 -4 55 -38 110 -77 54 -39 128 -91 165 -116 37 -25 105 -74 151 -108 46 -35 107 -75 134 -89 48 -24 63 -34 133 -81 18 -12 39 -22 48 -22 8 0 15 -4 15 -9 0 -13 59 -54 79 -56 9 0 28 -12 42 -25 64 -60 92 -72 103 -44 8 20 26 9 26 -17 0 -10 7 -19 15 -19 8 0 15 -2 15 -5 0 -10 -53 -89 -77 -116 -13 -14 -25 -36 -28 -48 -2 -13 -11 -28 -19 -35 -7 -6 -19 -36 -26 -66 -7 -30 -21 -80 -31 -110 -41 -128 -49 -245 -28 -410 22 -179 32 -211 129 -400 35 -68 155 -224 208 -270 64 -55 121 -81 192 -87 56 -5 59 -7 54 -28 -4 -18 0 -24 25 -33 16 -6 38 -8 49 -5 11 2 23 0 26 -6 9 -15 48 -14 121 3 33 7 93 21 133 30 98 22 177 64 260 142 75 69 132 163 167 274 10 30 20 59 22 63 10 17 2 234 -12 322 -20 132 -50 251 -80 324 -38 93 -111 235 -157 308 -44 70 -199 220 -256 249 -20 10 -44 25 -53 32 -55 44 -292 60 -389 25 -55 -19 -108 -50 -167 -99 l-32 -26 -24 39 c-34 52 -96 113 -132 129 -16 7 -48 31 -70 54 -22 23 -54 48 -70 56 -17 8 -57 36 -90 62 -33 27 -71 55 -85 62 -35 19 -458 340 -560 425 -160 134 -183 148 -237 138z m1707 -970 c106 -29 237 -122 315 -223 57 -75 121 -183 141 -239 9 -25 22 -57 29 -71 40 -79 85 -243 93 -341 10 -116 0 -256 -22 -309 -7 -19 -20 -54 -27 -77 -6 -24 -16 -43 -22 -43 -11 0 -53 -52 -50 -62 10 -29 -181 -148 -237 -148 -14 0 -41 -8 -60 -18 -24 -13 -67 -21 -138 -25 l-103 -6 25 43 25 44 -31 6 c-17 3 -42 6 -57 6 -149 1 -360 307 -417 606 -18 96 -15 323 4 347 5 6 17 48 26 92 20 96 57 173 134 279 46 64 69 86 119 113 97 53 139 58 253 26z"/>
 <path d="M3390 3244 c0 -8 5 -12 10 -9 6 4 8 11 5 16 -9 14 -15 11 -15 -7z"/>
 <path d="M8680 3090 c-45 -55 -84 -100 -86 -100 -2 0 -26 16 -53 35 -93 67 -211 120 -211 95 0 -5 7 -10 15 -10 8 0 15 -7 15 -14 0 -8 39 -45 88 -82 48 -37 91 -71 96 -75 5 -4 -3 -22 -18 -39 -14 -17 -26 -35 -26 -38 -1 -4 -14 -22 -30 -41 l-28 -33 -88 71 c-92 73 -137 90 -151 55 -9 -25 5 -42 103 -122 49 -40 88 -76 87 -80 -1 -4 -26 -44 -56 -88 -29 -44 -57 -93 -61 -109 -4 -17 -9 -39 -12 -50 -4 -18 -3 -18 8 -4 7 8 21 18 30 22 10 3 26 19 35 34 10 15 40 56 67 90 l49 62 73 -51 c47 -33 71 -55 65 -62 -4 -6 -38 -49 -74 -94 -37 -46 -67 -88 -67 -94 0 -5 5 -18 10 -29 21 -38 47 -21 130 81 l81 100 62 -42 c34 -23 74 -49 88 -59 23 -16 91 -39 113 -39 9 0 -8 21 -44 55 -31 29 -155 125 -162 125 -15 0 -8 27 12 45 11 10 20 22 20 27 0 5 14 27 31 48 l31 39 93 -75 c80 -64 97 -74 120 -68 59 15 42 44 -79 143 -39 31 -74 59 -80 63 -6 4 6 30 30 65 51 76 63 95 70 113 3 8 10 24 14 35 5 11 12 31 16 45 l6 25 -21 -22 c-12 -13 -25 -23 -30 -23 -4 0 -38 -40 -75 -90 -38 -49 -70 -90 -73 -90 -9 0 -142 95 -143 102 0 4 32 45 70 92 70 84 83 119 58 144 -7 7 -18 12 -24 12 -7 0 -50 -45 -94 -100z m13 -266 l68 -56 -18 -28 c-10 -15 -35 -47 -57 -70 -35 -39 -41 -42 -60 -30 -41 25 -116 93 -116 105 0 11 100 134 110 135 3 0 36 -25 73 -56z"/>
 <path d="M6772 1728 c-15 -15 -15 -53 -1 -81 6 -12 49 -72 95 -133 80 -106 101 -124 148 -124 58 0 -46 237 -140 319 -36 32 -81 40 -102 19z"/>
 </g>

</svg>