<!DOCTYPE svg PUBLIC "-//W3C//DTD SVG 20010904//EN" "http://www.w3.org/TR/2001/REC-SVG-20010904/DTD/svg10.dtd">
<svg version="1.0" xmlns="http://www.w3.org/2000/svg" width="2162px" height="1236px" viewBox="0 0 12000 6860" preserveAspectRatio="xMidYMid meet">
<g id="layer101" fill="#ffffff" stroke="none">
 <path d="M5670 6000 c-47 -47 -55 -136 -16 -192 l24 -36 -57 -16 c-31 -9 -83 -20 -116 -24 -76 -9 -87 -32 -23 -51 24 -7 65 -22 91 -33 l48 -21 -30 -18 c-16 -9 -31 -21 -34 -26 -6 -9 -211 -8 -226 2 -15 9 -14 40 3 54 11 9 15 5 19 -19 7 -31 24 -39 45 -18 30 30 -8 108 -52 108 -52 0 -75 -69 -47 -139 15 -34 55 -61 92 -61 19 0 18 -3 -15 -40 -44 -49 -48 -99 -12 -176 28 -60 58 -84 103 -84 40 0 66 34 61 82 -2 28 -7 34 -31 36 -16 2 -29 -2 -31 -10 -15 -49 -15 -49 -36 -38 -25 13 -25 68 0 80 51 24 83 29 104 15 11 -8 32 -15 46 -15 29 0 88 34 96 55 15 38 -30 113 -60 102 -16 -6 -16 -9 3 -33 24 -30 27 -54 9 -72 -17 -17 -48 -15 -48 3 0 8 -4 15 -10 15 -14 0 -12 93 3 112 16 21 78 58 96 58 8 0 108 -45 221 -100 113 -55 250 -114 304 -131 53 -17 94 -35 89 -39 -4 -4 -45 -32 -90 -62 l-82 -54 -88 22 c-89 23 -165 29 -222 18 -27 -6 -31 -10 -31 -41 0 -18 6 -48 14 -66 46 -108 151 -110 304 -4 l44 29 146 -70 c195 -94 320 -148 361 -157 134 -29 324 20 509 132 78 48 76 48 140 -8 l41 -35 -40 -40 c-73 -71 -121 -172 -140 -297 -7 -46 -12 -373 -14 -922 -3 -909 -2 -892 -54 -992 -55 -109 -188 -95 -328 34 l-40 38 -9 205 c-13 297 -11 652 4 735 32 182 74 305 132 391 16 25 30 46 30 48 0 2 -26 6 -57 10 -31 4 -76 15 -99 25 -48 22 -130 93 -139 122 -11 33 -25 21 -25 -21 0 -80 -51 -179 -101 -195 -9 -3 -32 3 -51 15 -42 25 -78 25 -111 0 -49 -39 -45 -130 5 -149 31 -12 50 5 46 43 -2 25 -7 31 -25 30 -25 -1 -28 8 -13 37 15 27 65 25 84 -3 38 -59 74 -203 85 -343 24 -303 12 -916 -30 -1494 -30 -418 -43 -479 -133 -606 -90 -126 -327 -313 -380 -299 -37 9 -51 30 -38 57 10 21 11 21 11 -6 2 -55 61 -42 61 13 0 30 -39 70 -67 70 -8 0 -28 -13 -44 -30 -35 -34 -33 -58 9 -103 51 -54 108 -52 196 6 28 18 80 45 116 61 84 36 184 103 247 166 50 49 113 153 113 184 0 26 16 18 55 -26 32 -38 58 -80 150 -242 35 -63 120 -151 135 -141 21 13 -9 -34 -73 -118 -33 -43 -63 -76 -67 -75 -4 2 -33 31 -65 66 l-58 62 28 63 c53 116 42 200 -30 234 -51 25 -80 8 -99 -58 -24 -80 -21 -120 15 -169 22 -30 28 -45 20 -53 -6 -6 -57 -14 -114 -17 -56 -4 -114 -13 -127 -20 -14 -7 -59 -46 -101 -87 l-76 -75 -64 51 c-112 90 -205 101 -297 35 -67 -48 -64 -48 -119 -14 -91 57 -159 56 -208 -1 -35 -42 -29 -69 19 -93 52 -26 171 -28 207 -4 26 16 27 16 75 -24 86 -72 134 -98 179 -98 56 0 100 16 158 57 l48 34 27 -19 c182 -129 373 -124 529 13 l51 45 72 -89 c104 -132 201 -207 323 -251 34 -13 63 -24 65 -26 11 -7 -32 -64 -56 -75 l-28 -12 18 -36 c10 -19 18 -46 18 -59 l0 -23 26 20 c19 15 41 21 79 21 l53 0 -11 35 c-20 68 20 68 91 1 32 -30 36 -31 120 -30 70 0 97 5 135 23 97 47 149 128 148 231 0 70 -11 94 -54 120 -46 29 -74 25 -113 -14 -27 -27 -34 -42 -34 -74 0 -56 8 -72 37 -72 55 0 77 34 53 81 -9 16 -7 19 10 19 17 0 20 -6 20 -50 0 -157 -120 -211 -224 -101 -35 36 -53 38 -106 11 -22 -11 -49 -20 -61 -20 -19 0 -21 4 -16 37 4 20 20 53 37 74 28 35 28 38 11 44 -11 3 -38 26 -60 50 -41 45 -42 45 -51 21 -10 -27 -49 -58 -62 -49 -6 3 -3 -8 6 -25 8 -16 18 -48 22 -70 l6 -41 -47 15 c-54 16 -121 53 -177 96 -30 24 -151 158 -207 230 -11 15 -6 27 41 90 30 40 64 88 77 105 l22 33 52 -41 c111 -88 220 -148 313 -173 96 -27 255 -32 354 -12 120 25 162 45 318 157 189 135 168 128 254 92 183 -76 330 -75 450 4 43 29 78 79 78 113 0 33 -36 86 -75 110 -94 58 -243 23 -464 -111 l-63 -39 -79 35 c-275 124 -560 230 -655 243 -109 15 -204 -17 -302 -100 -46 -40 -135 -141 -174 -198 l-16 -25 -41 40 c-47 45 -76 121 -110 292 -33 162 -39 282 -34 646 7 401 -9 364 128 295 102 -51 159 -93 228 -168 l55 -59 7 47 c9 59 26 93 65 126 28 23 40 26 109 26 70 0 156 -11 202 -25 19 -6 31 17 23 40 -4 8 -17 15 -30 15 -63 0 -128 52 -163 131 -50 113 -54 145 -59 499 -4 368 4 494 43 645 25 96 87 241 125 295 12 17 19 30 17 30 -3 0 -30 -12 -62 -26 -80 -37 -133 -30 -187 23 l-40 40 2 171 c1 190 12 250 61 342 17 31 50 76 73 99 l43 42 64 -44 c292 -203 560 -194 897 30 l84 55 51 -15 c29 -8 124 -36 212 -62 136 -39 173 -46 251 -47 103 -1 165 20 222 75 111 106 123 345 21 420 -117 85 -345 -5 -679 -268 -36 -28 -70 -54 -77 -58 -10 -6 -180 35 -205 49 -4 3 0 21 8 41 55 130 -108 290 -307 301 -139 8 -246 -32 -476 -178 -20 -13 -24 -12 -45 15 -29 36 -47 67 -47 80 0 6 23 21 51 35 74 36 144 107 158 161 39 145 -67 332 -174 305 -34 -8 -65 -66 -93 -176 -20 -77 -23 -111 -19 -175 3 -44 8 -91 11 -105 6 -25 4 -26 -77 -47 -46 -12 -108 -25 -139 -29 -49 -6 -61 -3 -110 24 -171 96 -376 96 -547 1 l-54 -30 -80 20 c-45 12 -133 44 -197 72 -64 27 -169 73 -234 101 -64 29 -114 55 -110 59 5 5 45 18 90 31 47 13 83 28 83 35 0 7 -34 29 -76 49 l-76 36 26 27 c70 73 44 194 -46 216 -19 5 -32 1 -48 -15z m84 -52 c9 -12 16 -36 16 -53 0 -31 -33 -95 -49 -95 -17 0 -61 62 -61 86 0 14 7 38 15 54 19 37 57 40 79 8z m1689 -106 c33 -35 67 -127 67 -183 0 -76 -56 -146 -158 -198 l-42 -22 -12 28 c-18 44 -15 209 5 275 19 62 68 128 96 128 10 0 29 -13 44 -28z m-1686 -119 l53 -28 -82 -26 -82 -26 -60 27 -61 27 55 12 c30 7 69 18 85 26 40 18 33 19 92 -12z m2221 -283 c72 -26 156 -83 182 -125 23 -36 26 -91 8 -130 -10 -23 -16 -26 -42 -20 -77 15 -237 35 -291 35 -33 0 -100 -7 -150 -15 -49 -9 -98 -16 -107 -18 -16 -2 -138 80 -138 92 1 8 180 118 268 163 64 33 82 38 143 38 44 0 90 -7 127 -20z m-1177 -30 c35 -11 75 -26 88 -34 l24 -13 -27 -7 c-36 -9 -380 -9 -435 0 l-44 7 39 20 c97 51 245 62 355 27z m2338 -22 c39 -24 54 -73 49 -163 -6 -113 -42 -187 -112 -230 -46 -28 -56 -30 -150 -30 -103 1 -235 28 -424 88 l-72 24 92 65 c242 170 325 218 430 249 69 21 152 19 187 -3z m-1835 -27 c9 -16 27 -42 41 -59 l26 -31 -71 -46 -71 -46 -28 23 c-15 13 -58 48 -95 78 l-68 55 64 13 c34 8 83 19 108 27 67 19 78 18 94 -14z m-719 -47 c110 -3 241 -2 290 4 50 5 97 5 107 1 13 -7 115 -87 197 -155 12 -10 -35 -40 -165 -105 -144 -73 -145 -73 -239 -77 -79 -4 -108 0 -187 22 -83 24 -418 176 -418 190 0 4 39 35 88 71 62 47 93 64 107 60 11 -3 110 -8 220 -11z m-561 -105 c25 -6 46 -14 46 -18 0 -3 -30 -25 -67 -49 -83 -52 -139 -58 -172 -16 -31 39 -27 82 9 97 20 9 126 1 184 -14z m1431 -20 c28 -23 52 -43 54 -44 2 -2 -12 -10 -31 -18 -19 -8 -53 -27 -77 -41 l-42 -27 -50 42 c-28 23 -47 45 -42 49 21 19 119 80 128 80 6 0 33 -18 60 -41z m614 -50 l65 -12 -30 -23 c-91 -73 -281 -72 -443 2 -30 13 -52 26 -49 29 25 25 333 28 457 4z m-428 -66 c106 -51 185 -67 290 -60 84 5 158 35 210 83 l25 24 75 -20 c137 -35 134 -31 54 -82 -90 -58 -172 -99 -260 -129 -61 -21 -88 -24 -210 -24 -134 0 -143 2 -216 32 -81 33 -173 88 -202 120 -14 16 -15 22 -4 31 18 15 141 73 147 69 3 -2 44 -22 91 -44z m-91 -3397 c238 -82 356 -126 455 -172 l80 -37 -25 -18 c-14 -10 -74 -55 -135 -100 -186 -137 -269 -169 -441 -169 -198 0 -352 62 -518 208 l-37 32 48 67 c123 173 229 248 353 252 20 1 117 -27 220 -63z m-930 -102 c7 -19 9 -52 6 -72 -8 -42 -36 -112 -46 -112 -3 0 -17 18 -29 41 -19 34 -23 51 -19 106 3 49 9 69 22 79 26 19 52 2 66 -42z m1993 45 c108 -56 100 -137 -21 -195 -95 -46 -227 -35 -392 34 l-34 14 39 25 c175 108 340 157 408 122z m-1970 -354 c43 -55 56 -79 50 -90 -15 -27 -106 -97 -151 -117 -63 -29 -192 -27 -263 3 -53 22 -129 69 -128 79 1 10 177 164 195 171 11 4 60 8 109 8 50 1 97 6 105 11 8 5 17 10 20 9 3 0 31 -33 63 -74z m-1054 -34 c54 -28 68 -47 42 -60 -44 -24 -181 -6 -181 24 0 20 49 55 77 55 13 0 41 -9 62 -19z m384 -11 c26 -13 62 -36 79 -50 29 -25 31 -29 18 -45 -24 -29 -113 -75 -147 -75 -29 0 -73 28 -177 113 l-29 23 49 33 c43 29 55 32 104 29 31 -2 76 -14 103 -28z"/>
 <path d="M2209 5885 c-23 -13 -79 -81 -79 -98 0 -4 7 -7 15 -7 20 0 20 -1 -20 -80 -19 -38 -35 -73 -35 -77 0 -5 10 -13 22 -18 12 -6 37 -29 55 -53 l33 -44 0 -614 c0 -595 -1 -614 -19 -614 -29 0 -88 73 -106 132 -9 29 -21 110 -28 181 -10 111 -13 127 -29 127 -15 0 -18 -8 -18 -45 0 -71 -29 -195 -58 -250 -67 -124 -160 -175 -337 -183 -205 -8 -399 47 -504 144 -77 71 -103 130 -109 246 l-4 87 77 92 c42 50 79 98 82 105 4 11 30 14 104 14 92 0 99 1 99 20 0 19 -7 20 -100 20 -93 0 -100 -1 -100 -20 0 -13 -7 -20 -18 -20 -27 0 -102 -51 -141 -95 -45 -52 -72 -115 -78 -185 -5 -53 -2 -65 39 -151 101 -211 244 -336 453 -395 45 -13 112 -18 270 -21 l210 -4 130 34 c72 19 142 38 158 41 l27 6 0 -444 0 -445 -37 -6 c-68 -10 -128 -22 -145 -30 -17 -7 -18 7 -18 216 l-1 224 -86 70 c-234 191 -363 277 -435 290 -35 7 -38 6 -38 -17 0 -21 12 -29 98 -64 l97 -39 3 -321 2 -321 -80 -84 -80 -84 63 -7 c40 -5 85 -19 127 -41 36 -19 71 -32 78 -30 6 3 12 18 12 35 0 28 45 88 67 88 4 0 35 -18 67 -40 l60 -39 18 30 c10 16 39 43 65 60 39 24 56 29 86 26 68 -9 77 -26 77 -143 l0 -103 -57 -11 c-32 -7 -76 -16 -97 -20 -46 -10 -39 -13 -132 57 -90 67 -109 69 -119 7 -4 -29 -17 -57 -35 -77 -27 -31 -31 -32 -120 -36 -108 -4 -125 3 -171 67 l-33 45 17 47 c22 62 22 80 -2 80 -61 0 -85 -140 -35 -200 33 -39 88 -68 184 -96 l75 -22 3 -406 2 -406 -60 0 c-51 0 -60 -3 -60 -18 0 -12 14 -25 39 -36 50 -21 171 -103 324 -218 65 -48 126 -88 137 -88 17 0 15 7 -20 57 l-40 58 0 568 0 567 100 0 100 0 0 -645 0 -645 -35 0 c-19 0 -35 -2 -35 -4 0 -2 11 -23 25 -48 54 -97 85 -308 85 -583 l0 -175 -36 0 c-36 0 -37 0 -31 -36 3 -20 21 -85 38 -144 30 -99 34 -108 52 -99 29 16 48 73 56 170 7 97 6 109 -15 109 -12 0 -14 51 -14 319 l0 320 45 -20 c48 -21 65 -19 65 10 0 26 -21 41 -70 49 l-42 7 1 155 c1 138 -1 159 -19 192 -24 45 -25 58 -5 58 19 0 19 3 -5 50 -19 37 -20 59 -20 440 l0 400 263 0 c263 0 264 0 285 -23 l22 -23 0 -522 0 -522 -60 0 c-52 0 -60 -2 -60 -19 0 -14 18 -28 63 -49 62 -29 235 -149 358 -249 55 -44 99 -66 99 -49 0 2 -15 35 -32 72 l-33 69 -3 697 -3 698 41 0 c33 0 40 3 40 19 0 14 -10 21 -37 26 -68 12 -137 61 -215 153 l-36 43 -49 -24 c-53 -27 -99 -42 -155 -52 -36 -5 -38 -4 -58 34 -24 48 -26 98 -4 129 25 36 52 41 106 20 26 -10 63 -18 81 -18 30 0 34 3 45 45 12 45 51 83 72 70 5 -3 35 -58 66 -121 31 -63 62 -114 68 -114 23 1 97 40 102 55 9 23 61 19 89 -9 22 -22 45 -81 45 -118 0 -11 -8 -18 -20 -18 -26 0 -60 -34 -60 -60 0 -17 7 -20 40 -20 40 0 40 0 40 38 0 30 5 40 29 54 44 25 59 83 37 142 -23 60 -72 126 -94 126 -9 0 -39 -7 -66 -15 -27 -8 -62 -15 -78 -15 l-28 0 0 778 c0 668 2 786 15 830 34 115 164 265 338 391 101 73 77 78 -56 11 -274 -138 -495 -338 -598 -541 l-29 -58 0 -631 c0 -362 -4 -630 -9 -630 -20 0 -109 -91 -134 -139 -29 -53 -57 -161 -57 -223 0 -42 -12 -48 -33 -17 -15 20 -15 20 -53 1 -38 -19 -41 -19 -133 -1 -52 10 -98 22 -102 26 -32 35 -70 1152 -38 1127 31 -25 135 -101 147 -108 32 -19 6 30 -51 96 -34 40 -73 86 -85 102 l-22 29 0 636 c0 616 1 637 20 669 12 19 28 32 40 32 11 0 20 5 20 10 0 18 -73 305 -79 312 -3 3 -18 0 -32 -7z"/>
 <path d="M5520 4531 l0 -109 -46 -51 c-61 -67 -143 -108 -256 -124 l-87 -12 19 -30 c49 -73 90 -261 115 -519 20 -210 20 -216 -5 -216 -19 0 -19 -1 1 -44 21 -43 21 -44 4 -101 -23 -71 -79 -135 -118 -135 -20 0 -27 -5 -27 -20 0 -26 44 -26 160 -1 234 52 352 -63 405 -391 4 -28 11 -38 24 -38 16 0 19 11 24 79 9 143 67 228 162 239 l44 4 18 -61 c18 -61 18 -61 56 -61 34 0 37 2 37 27 0 42 -78 189 -130 246 -47 51 -47 51 -118 55 -69 4 -72 3 -128 -37 -31 -23 -68 -41 -81 -41 l-23 0 0 439 c0 503 -9 457 100 531 52 35 66 40 117 40 51 0 65 -5 118 -40 33 -22 70 -40 83 -40 19 0 22 5 22 38 l0 38 -76 24 c-185 56 -309 193 -322 356 l-5 64 -43 0 -44 0 0 -109z"/>
 <path d="M4350 4578 c0 -38 -46 -124 -91 -173 -24 -26 -84 -74 -133 -106 -113 -74 -152 -78 -235 -24 -99 66 -96 42 14 -99 l85 -108 0 -378 0 -377 -66 -87 c-36 -48 -64 -95 -62 -104 3 -15 24 -18 183 -22 194 -6 233 -15 312 -76 64 -49 113 -155 113 -246 0 -31 4 -38 19 -38 16 0 21 12 30 80 26 174 94 310 248 492 40 48 73 91 73 96 0 5 -37 27 -82 50 -92 45 -237 155 -412 310 -128 113 -132 121 -97 197 36 80 141 153 298 206 l82 27 17 -26 c20 -33 39 -49 132 -113 89 -61 102 -67 102 -43 -1 12 -32 42 -83 79 -44 33 -129 107 -187 165 -120 120 -168 196 -177 285 l-6 55 -38 0 c-34 0 -39 -3 -39 -22z m22 -905 c22 -21 63 -64 90 -96 46 -56 48 -60 48 -122 0 -40 -8 -85 -20 -119 -35 -91 -133 -186 -194 -186 l-26 0 0 183 c0 144 -5 201 -20 271 -11 50 -20 94 -20 98 0 4 22 8 50 8 44 0 55 -5 92 -37z"/>
 <path d="M8096 4578 c-20 -28 -20 -58 -1 -58 41 0 -8 -80 -107 -176 -121 -117 -104 -111 -197 -64 -69 34 -81 38 -81 22 0 -9 45 -62 100 -117 l101 -100 -3 -437 c-3 -425 -4 -437 -24 -465 -33 -45 -82 -73 -128 -74 l-41 0 40 -32 c141 -112 223 -238 233 -354 4 -58 7 -63 28 -63 21 0 24 5 24 38 0 96 51 189 134 247 l56 38 72 -32 c40 -18 79 -35 86 -38 8 -4 12 6 12 31 0 33 -3 36 -40 46 -46 12 -91 48 -131 104 l-29 39 0 487 c0 450 1 489 18 509 26 33 83 38 132 12 22 -11 43 -21 45 -21 3 0 5 18 5 40 0 37 -2 40 -27 40 -44 1 -108 35 -137 72 -39 52 -66 142 -73 241 -6 82 -7 87 -29 87 -13 0 -30 -10 -38 -22z"/>
 <path d="M10706 4559 c-15 -92 -73 -160 -181 -210 -124 -58 -244 -75 -327 -46 l-47 16 42 -52 c116 -143 151 -312 145 -698 -5 -268 -11 -301 -78 -410 -16 -27 -30 -51 -30 -53 0 -1 51 -6 113 -9 278 -16 461 -128 519 -318 17 -58 44 -53 51 10 20 165 183 271 420 271 31 0 57 2 57 5 0 3 -27 42 -61 87 l-60 83 3 415 3 415 28 69 c15 38 32 76 39 83 6 7 9 15 7 17 -2 2 -56 13 -119 25 -178 32 -303 79 -387 147 -45 37 -93 122 -93 166 0 21 -5 28 -19 28 -14 0 -20 -10 -25 -41z m284 -768 l0 -490 -49 -59 c-82 -99 -180 -162 -273 -175 l-38 -6 0 530 0 529 123 61 c106 54 205 96 230 98 4 1 7 -219 7 -488z"/>
 <path d="M8640 4360 l0 -40 130 -65 c273 -137 522 -215 689 -215 83 0 431 33 431 41 0 10 -155 202 -215 267 l-51 55 -47 -32 c-140 -96 -280 -135 -457 -128 -133 5 -236 35 -389 112 l-91 45 0 -40z"/>
 <path d="M8988 3968 c66 -84 108 -160 127 -233 22 -87 20 -105 -10 -105 -48 0 -95 -35 -95 -69 0 -5 35 -11 79 -14 43 -3 97 -14 120 -23 42 -17 81 -55 81 -80 0 -8 18 -41 40 -73 38 -56 40 -61 40 -139 0 -107 -12 -122 -102 -129 -84 -7 -104 -2 -162 43 -53 40 -96 117 -96 172 0 25 -4 32 -19 32 -14 0 -21 -11 -29 -43 -16 -61 -63 -126 -148 -206 -41 -38 -74 -71 -74 -74 0 -2 13 -7 29 -10 16 -4 46 -21 66 -38 57 -50 93 -131 129 -291 4 -18 13 -28 25 -28 15 0 20 11 25 60 14 126 49 221 98 271 28 28 34 29 116 29 92 0 150 -18 184 -56 39 -45 70 -134 76 -220 4 -71 7 -84 22 -84 14 0 20 14 30 67 14 80 31 116 78 166 44 45 123 77 214 84 59 5 68 9 68 26 0 10 -23 44 -51 75 -122 133 -269 353 -269 402 0 34 28 59 74 67 20 3 36 8 36 10 0 4 -30 65 -35 71 -2 2 -22 -6 -45 -18 l-42 -22 -40 39 c-34 33 -199 259 -226 310 -8 14 -49 28 -164 56 -213 51 -211 52 -150 -25z"/>
 <path d="M8007 2365 c-32 -50 -72 -82 -126 -101 -20 -6 -37 -19 -39 -27 -4 -18 87 -111 173 -177 l58 -45 16 25 c8 14 36 46 61 72 36 36 56 49 88 54 23 4 42 10 42 13 0 16 -58 83 -113 130 -62 54 -121 101 -128 101 -2 0 -17 -20 -32 -45z"/>
 <path d="M830 2150 c0 -19 7 -20 120 -20 113 0 120 1 120 20 0 19 -7 20 -120 20 -113 0 -120 -1 -120 -20z"/>
 <path d="M670 2050 c0 -33 3 -38 18 -33 26 9 49 32 55 54 4 16 0 19 -34 19 -39 0 -39 0 -39 -40z"/>
 <path d="M630 1842 l0 -170 83 -85 c131 -135 260 -198 438 -217 138 -14 285 7 402 59 52 23 155 90 176 115 20 24 38 20 92 -19 46 -33 89 -46 89 -26 0 17 -144 139 -350 296 -123 93 -141 95 -104 12 l18 -40 -39 -34 c-60 -52 -143 -105 -210 -133 -53 -22 -74 -25 -175 -25 -103 0 -121 3 -170 26 -132 62 -195 161 -209 328 -5 61 -9 76 -23 79 -17 3 -18 -10 -18 -166z"/>
 <path d="M3220 1265 c0 -29 47 -65 85 -65 41 0 45 15 14 54 -16 20 -29 26 -60 26 -28 0 -39 -4 -39 -15z"/>
 </g>

</svg>
